<svg id="Layer_1" data-name="Layer 1" xmlns="http://www.w3.org/2000/svg" xmlns:xlink="http://www.w3.org/1999/xlink" viewBox="0 0 792 612"><defs><style>.cls-1,.cls-4{fill:none;}.cls-2{fill:#fff;}.cls-3{clip-path:url(#clip-path);}.cls-4{stroke:#231f20;stroke-width:6.73px;}</style><clipPath id="clip-path"><rect class="cls-1" x="112.56" y="19.12" width="566.88" height="573.77"/></clipPath></defs><title>starBurst</title><polygon class="cls-2" points="497.28 29.12 399.94 149.9 307.33 29.59 307.01 184.59 159.36 155.29 256.21 271.99 122.6 347.4 271.31 371.19 214.26 516.03 345.24 435.79 391.44 582.28 443.41 435.54 571.25 515.14 519.88 370.58 669.54 346.04 538.88 271.29 640.33 154.1 491.51 184.14 497.28 29.12"/><g class="cls-3"><polygon class="cls-4" points="497.28 29.12 399.94 149.9 307.33 29.59 307.01 184.59 159.36 155.29 256.21 271.99 122.6 347.4 271.31 371.19 214.26 516.03 345.24 435.79 391.44 582.28 443.41 435.54 571.25 515.14 519.88 370.58 669.54 346.04 538.88 271.29 640.33 154.1 491.51 184.14 497.28 29.12"/></g></svg>