<?xml version="1.0" encoding="utf-8"?>
<!-- Generator: Adobe Illustrator 23.0.3, SVG Export Plug-In . SVG Version: 6.00 Build 0)  -->
<svg version="1.1" id="Layer_1" xmlns="http://www.w3.org/2000/svg" xmlns:xlink="http://www.w3.org/1999/xlink"
	 width="566.9" height="573.8" style="enable-background:new 0 0 566.9 573.8;" xml:space="preserve">
<style type="text/css">
	.st0{fill:#FFFFFF;}
	.st1{clip-path:url(#SVGID_2_);}
	.st2{fill:none;stroke:#231F20;stroke-width:6.73;}
</style>
<title>starBurst</title>
<polygon class="st0" points="384.7,10 287.4,130.8 194.8,10.5 194.5,165.5 46.8,136.2 143.6,252.9 10,328.3 158.8,352.1 
	101.7,496.9 232.7,416.7 278.9,563.2 330.9,416.4 458.7,496 407.3,351.5 557,326.9 426.3,252.2 527.8,135 379,165 "/>
<g>
	<defs>
		<rect id="SVGID_1_" width="566.9" height="573.8"/>
	</defs>
	<clipPath id="SVGID_2_">
		<use xlink:href="#SVGID_1_"  style="overflow:visible;"/>
	</clipPath>
	<g class="st1">
		<polygon class="st2" points="384.7,10 287.4,130.8 194.8,10.5 194.5,165.5 46.8,136.2 143.6,252.9 10,328.3 158.8,352.1 
			101.7,496.9 232.7,416.7 278.9,563.2 330.9,416.4 458.7,496 407.3,351.5 557,326.9 426.3,252.2 527.8,135 379,165 		"/>
	</g>
</g>
</svg>
