<?xml version="1.0" encoding="utf-8"?>
<!-- Generator: Adobe Illustrator 23.0.3, SVG Export Plug-In . SVG Version: 6.00 Build 0)  -->
<svg version="1.1" id="Layer_1" xmlns="http://www.w3.org/2000/svg" xmlns:xlink="http://www.w3.org/1999/xlink"
	 width="406.7" height="407.8" style="enable-background:new 0 0 406.7 407.8;" xml:space="preserve">
<style type="text/css">
	.st0{fill:#231F20;}
</style>
<title>seniorExhibitionCircle</title>
<path class="st0" d="M0,192.4l0.5-4.5l21.2,2.5c7.5,0.9,11.6-1.5,12.3-7.3c0.7-5.8-2.7-9.1-10.2-10l-21.2-2.5l0.5-4.5l22.7,2.7
	c3.7,0.3,7.1,2,9.6,4.8c4.6,6,3.6,14.5-2.3,19.2c-3.1,2.1-6.8,2.9-10.5,2.4L0,192.4z"/>
<path class="st0" d="M15.5,128.7l5,1.6c-3,1.8-5.3,4.6-6.3,8c-1.2,3.7-0.8,7.7,1.1,11c3.9,7,12.6,9.8,19.8,6.3
	c3.5-1.6,6.1-4.6,7.2-8.3c1.1-3.4,0.9-7.1-0.6-10.3l5.1,1.6c1.8,8.3-2.1,16.9-9.6,20.9c-4.4,2.4-9.6,2.9-14.3,1.3
	c-4.9-1.4-9-4.8-11.2-9.4c-2.4-4.5-2.8-9.8-1.1-14.7C11.3,133.6,13.1,130.8,15.5,128.7z"/>
<path class="st0" d="M20.5,114.4l28.8,14l4.8-9.9l3.7,1.8l-6.8,14l-32.5-15.9L20.5,114.4z"/>
<path class="st0" d="M64.2,94.7l-9.5,13.6l5.1,8.6l-2.8,4l-21-35.8l40.8,7.4l-2.8,4L64.2,94.7z M59.7,93.9L44,90.7l8.3,13.7
	L59.7,93.9z"/>
<path class="st0" d="M88.6,80.8l-22.9-28l5.8-4.8c4.5-3.7,9.3-5.6,14.2-5.6s9.2,2.2,12.9,6.6c3.8,4.6,5.1,9.3,4.2,14.1
	s-3.8,9.2-8.4,13L88.6,80.8z M71.8,53.2l17.7,21.6l1.2-1c1.7-1.4,3.3-3,4.7-4.8c1.2-1.6,2.1-3.3,2.7-5.2c0.6-1.9,0.6-3.9,0.2-5.8
	c-1.3-4.4-4.3-8.1-8.4-10.2c-1.8-0.8-3.8-1.2-5.7-0.9c-2,0.2-3.9,0.8-5.6,1.7c-2,1-3.9,2.2-5.6,3.6L71.8,53.2z"/>
<path class="st0" d="M129.5,53.7l-20.8-17.1h-0.1l7,23.2l-4.2,2.1l-10.5-37l24,19.8l-1.8-31L146.8,44l-4.1,2.1l-14.6-19.4H128
	L129.5,53.7z"/>
<path class="st0" d="M170.1,29.4l-16.2,3.9l-1.9,9.8l-4.7,1.1l8.1-40.7l25.6,32.7l-4.7,1.2L170.1,29.4z M167.3,25.8l-9.7-12.8
	l-2.9,15.7L167.3,25.8z"/>
<path class="st0" d="M198.9-1.2l4.5,0.2l-1,21.3c-0.3,7.6,2.4,11.5,8.2,11.8c5.8,0.3,8.9-3.4,9.2-11l0.9-21.3l4.5,0.2l-1,22.9
	c0,3.7-1.4,7.3-4,9.9c-5.6,5-14.2,4.7-19.3-0.9c-2.3-2.9-3.5-6.6-3.2-10.2L198.9-1.2z"/>
<path class="st0" d="M229.6,36.8L238.8,0l19.4,34.2l6.6-25.9l4.4,1.1L260,46l-19.4-34.2L234,37.9L229.6,36.8z"/>
<path class="st0" d="M265.9,47l16-32.5l6.7,3.3c5.3,2.6,8.9,6.1,11,10.6c2.1,4.5,1.8,9.3-0.7,14.5c-2.6,5.3-6.3,8.6-11.1,9.7
	c-4.8,1.1-9.9,0.4-15.3-2.3L265.9,47z M284.1,20.2l-12.3,25.1l1.4,0.7c2,1,4.1,1.8,6.3,2.3c1.9,0.4,3.9,0.6,5.9,0.3
	c1.9-0.3,3.8-1,5.3-2.2c1.8-1.4,3.2-3.2,4.1-5.3c1.1-2,1.6-4.3,1.7-6.6c0-2-0.5-3.9-1.5-5.6c-1-1.7-2.3-3.2-3.8-4.4
	c-1.7-1.4-3.6-2.6-5.6-3.6L284.1,20.2z"/>
<path class="st0" d="M294.5,62.2l21.2-29.3l15.8,11.4l-2.4,3.4l-12.1-8.8L311,47l11.7,8.5l-2.4,3.4l-11.7-8.5l-8,11.1l12.1,8.7
	l-2.4,3.4L294.5,62.2z"/>
<path class="st0" d="M333.4,73.9l-3,19.2l-3.9-3.9l3.2-18.4l-1.3-1.3l-10.8,10.9l-3.2-3.2l25.5-25.7l3.9,3.9c1,1,1.8,1.8,2.3,2.4
	c0.7,0.8,1.3,1.6,1.9,2.5c0.6,0.9,1.1,1.9,1.4,3c0.4,1.6,0.4,3.4-0.1,5c-0.5,1.7-1.4,3.2-2.6,4.4c-1.7,1.8-4,2.9-6.5,3.1
	C337.8,76.2,335.3,75.4,333.4,73.9z M340.3,57.6l-9.2,9.3l1,1c0.8,0.8,1.7,1.6,2.6,2.3c0.9,0.6,1.8,1.1,2.8,1.5
	c1,0.4,2.1,0.5,3.1,0.2c1.1-0.3,2.2-1,3-1.9c3-3.1,2.2-6.9-2.4-11.5L340.3,57.6z"/>
<path class="st0" d="M358.5,100.9l8.1,11.9l-1.2,0.8c-3.8,2.7-8.5,3.9-13.1,3.1c-4.6-0.8-8.6-3.4-11.1-7.3c-2.8-4-3.8-9-2.7-13.8
	c2.1-10.1,11.8-16.7,22-14.9c4.9,0.8,9.3,3.7,12.1,7.8c1.6,2.3,2.6,5,3.1,7.8c0.5,2.8,0.3,5.6-0.6,8.3l-4.3-0.9
	c0.7-2.1,1-4.4,0.7-6.6c-0.2-2.2-1-4.3-2.2-6.1c-2.1-3.2-5.5-5.4-9.3-6c-3.8-0.7-7.8,0.1-11,2.4c-3.2,2.2-5.4,5.5-6.2,9.2
	c-1,3.7-0.3,7.6,1.9,10.7c1.7,2.4,4.3,4.1,7.2,4.8c2.8,0.9,5.9,0.5,8.4-1.1l-5.3-7.7L358.5,100.9z"/>
<path class="st0" d="M371.9,131.1l-9.8,16.8l-2.2-5l9.7-15.9l-0.8-1.7l-14,6.2l-1.8-4.2l33.1-14.6l2.2,5c0.6,1.3,1,2.3,1.3,3.1
	c0.3,1,0.6,2,0.8,3c0.3,1.1,0.3,2.2,0.2,3.3c-0.2,1.7-0.9,3.3-1.9,4.7c-1,1.4-2.4,2.5-4,3.2c-2.2,1.1-4.8,1.2-7.2,0.6
	C375.1,134.9,373.1,133.3,371.9,131.1z M384.2,118.5l-12,5.3l0.6,1.3c0.5,1.1,1,2.1,1.6,3.1c0.6,0.9,1.2,1.7,2,2.4
	c0.8,0.7,1.8,1.2,2.8,1.3c1.2,0.1,2.4-0.1,3.5-0.7c3.9-1.7,4.6-5.6,1.9-11.6L384.2,118.5z"/>
<path class="st0" d="M377,170.5l-3.8-16.1l-9.8-2l-1.1-4.7l40.7,8.1l-32.7,25.6l-1.1-4.7L377,170.5z M380.6,167.7l12.8-9.6
	l-15.7-2.9L380.6,167.7z"/>
<path class="st0" d="M370.3,184l36.2-1.1l0.2,7.5c0.2,5.9-1.2,10.7-4.2,14.7c-3,3.9-7.3,6-13.1,6.2c-5.9,0.2-10.5-1.6-13.8-5.3
	c-3.3-3.7-5-8.6-5.2-14.6L370.3,184z M402.5,187.5l-27.9,0.9v1.6c0.1,2.2,0.4,4.4,0.9,6.6c0.5,1.9,1.3,3.7,2.5,5.3
	c1.1,1.6,2.7,2.9,4.5,3.6c4.3,1.7,9,1.5,13.2-0.4c1.8-0.9,3.2-2.3,4.2-4c1-1.7,1.7-3.5,2.1-5.5c0.4-2.2,0.6-4.4,0.5-6.6L402.5,187.5
	z"/>
<path class="st0" d="M383.2,289.3l-0.6-4.1c2.4-0.2,4.5-1.8,5.4-4.1c0.6-1.4,0.7-3,0.3-4.4c-0.3-1.4-1.3-2.6-2.7-3.1
	c-2-0.8-4.2,0.1-6.7,2.7l-1.9,2c-1.8,2-4,3.5-6.4,4.5c-2.3,0.8-4.9,0.6-7.1-0.4c-2.8-1.1-5.1-3.3-6.2-6.2c-1.1-2.9-1-6,0.2-8.8
	c1-2.6,3-4.7,5.5-5.8c2.5-1.2,5.4-1.4,8.1-0.6l-0.9,4.6c-1.7-0.8-3.6-0.8-5.3,0c-1.7,0.7-3.1,2.1-3.7,3.9c-0.7,1.7-0.7,3.6,0.1,5.2
	c0.8,1.7,2.2,3,3.9,3.6c1.4,0.7,3,0.7,4.5,0.1c1.6-0.8,3-1.9,4.3-3.2l1.9-1.9c1.6-1.6,3.5-3,5.6-4c1.9-0.8,4-0.7,5.9,0.2
	c2.5,0.9,4.4,3,5.1,5.5c0.8,2.6,0.6,5.4-0.5,7.9C390.5,286.5,387.1,289,383.2,289.3z"/>
<path class="st0" d="M351.3,282.8l30.8,18.9L372,318.3l-3.5-2.1l7.8-12.7l-8.6-5.3l-7.6,12.4l-3.5-2.2l7.6-12.4l-11.7-7.1l-7.8,12.7
	l-3.5-2.2L351.3,282.8z"/>
<path class="st0" d="M338.5,303.8l28.3,25.3l-39.3,1.3l19.9,17.8l-3,3.4l-28.1-25.1l39.3-1.3l-20.1-18L338.5,303.8z"/>
<path class="st0" d="M332,361.8L308.7,334l3.5-2.9l23.3,27.7L332,361.8z"/>
<path class="st0" d="M317.4,367.3c-2.5,10.1-12.7,16.3-22.9,13.8c0,0,0,0,0,0c-10.1-2.5-16.3-12.7-13.9-22.8c0,0,0,0,0-0.1
	c2.7-10.1,12.9-16.2,23-13.9C313.8,346.9,319.9,357.2,317.4,367.3C317.4,367.3,317.4,367.3,317.4,367.3L317.4,367.3z M302.4,348.7
	c-7.7-1.9-15.5,2.7-17.4,10.4c0,0,0,0.1,0,0.1c-1,3.8-0.4,7.8,1.7,11.1c1.9,3.4,5.1,5.8,8.9,6.8c7.8,1.9,15.8-2.8,17.7-10.7
	c0.9-3.8,0.2-7.7-1.8-11C309.5,352,306.2,349.6,302.4,348.7L302.4,348.7z"/>
<path class="st0" d="M264,376.8L248,365.9l5.1-1.9l15.2,10.8l1.8-0.6l-5.2-14.4l4.2-1.5l12.3,34l-5.1,1.9c-1.3,0.5-2.3,0.8-3.2,1.1
	c-1,0.3-2,0.5-3,0.6c-1.1,0.2-2.2,0.2-3.4,0c-1.7-0.3-3.2-1.1-4.5-2.2c-1.3-1.2-2.3-2.6-2.9-4.3c-0.9-2.3-0.9-4.9,0-7.2
	C260.1,379.8,261.8,377.9,264,376.8z M275.8,390l-4.5-12.3l-1.4,0.5c-1.1,0.4-2.2,0.9-3.2,1.4c-0.9,0.5-1.8,1.1-2.5,1.9
	c-0.8,0.7-1.3,1.7-1.5,2.7c-0.2,1.2,0,2.4,0.4,3.5c1.5,4.1,5.3,5,11.5,2.8L275.8,390z"/>
<path class="st0" d="M230.8,369.3l3.9,36l-19.3,2.1l-0.5-4.1l14.9-1.6l-1.1-10.1l-14.4,1.6l-0.4-4.1l14.4-1.6l-1.4-13.6l-14.9,1.6
	l-0.4-4.1L230.8,369.3z"/>
<path class="st0" d="M197.1,390.2l9.2,17.7l-5.1-0.2l-6.8-13.5l-8.5,12.8l-5.1-0.2l11.2-16.8l-10.2-19.4l5,0.2l8,15.2l9.5-14.4
	l5,0.2L197.1,390.2z"/>
<path class="st0" d="M169.6,390l-16.8-3.8l-3.2,14.2l-4.4-1l8-35.3l4.4,1l-3.8,17l16.8,3.8l3.8-17l4.4,1l-7.9,35.3l-4.4-1L169.6,390
	z"/>
<path class="st0" d="M130.3,393.9L143,360l4.2,1.6l-12.7,33.9L130.3,393.9z"/>
<path class="st0" d="M137,357.8L120.6,390l-3.9-2c-1.5-0.7-2.9-1.6-4.3-2.6c-1.2-0.9-2.2-2-3-3.2c-0.9-1.2-1.3-2.6-1.3-4.1
	c0-1.7,0.5-3.4,1.3-4.9c0.6-1.3,1.6-2.3,2.8-3.1c1.1-0.8,2.4-1.3,3.8-1.2v-0.1c-1.7-1.3-2.8-3.2-3.2-5.2c-0.4-2.1-0.1-4.3,0.8-6.2
	c1.5-3,3.8-4.7,6.7-5.1c3.1-0.4,6.3,0.3,9.1,1.8L137,357.8z M118.4,384.4l5.4-10.7l-1-0.5c-1.7-1-3.7-1.5-5.7-1.5
	c-1.6,0.1-2.9,1.3-4,3.4c-1.1,2.1-1.2,3.8-0.4,5.1c1.1,1.6,2.7,2.9,4.5,3.7L118.4,384.4z M125.5,370.5l5.7-11.2l-3.1-1.6
	c-5.1-2.6-8.6-2-10.5,1.8c-0.5,1-0.8,2.1-0.6,3.1c0.1,1,0.5,2,1.2,2.7c0.7,0.8,1.4,1.5,2.2,2.1c0.9,0.6,1.8,1.2,2.7,1.7L125.5,370.5
	z"/>
<path class="st0" d="M90.7,373.2l19.8-30.3l3.8,2.4l-19.8,30.3L90.7,373.2z"/>
<path class="st0" d="M77.2,358.1l20-25l3.5,2.8l-20,25l6.7,5.4l-2.6,3.2l-17-13.5l2.6-3.2L77.2,358.1z"/>
<path class="st0" d="M59.6,347.5l25.5-25.7l3.2,3.2l-25.4,25.7L59.6,347.5z"/>
<path class="st0" d="M52.9,333.9c-10.3-1.5-17.5-11-16.1-21.3c0,0,0,0,0,0c1.4-10.3,10.9-17.6,21.2-16.2c0,0,0.1,0,0.1,0
	c10.3,1.6,17.4,11.1,16.2,21.5C72.9,328.2,63.3,335.4,52.9,333.9C53,333.9,52.9,333.9,52.9,333.9L52.9,333.9z M69.9,317.1
	c1.1-7.8-4.3-15.1-12.1-16.2c0,0-0.1,0-0.1,0c-3.8-0.6-7.8,0.4-10.8,2.8c-3.1,2.3-5.2,5.7-5.8,9.5c-1.1,8,4.5,15.4,12.4,16.5
	c3.8,0.5,7.7-0.6,10.8-3C67.4,324.4,69.4,320.9,69.9,317.1L69.9,317.1z"/>
<path class="st0" d="M56.8,285.4l-34.7,15.4l15-36.4l-24.4,10.8l-1.8-4.1l34.5-15.3l-15,36.4L55,281.3L56.8,285.4z"/>
</svg>
