<svg id="Layer_1" data-name="Layer 1" xmlns="http://www.w3.org/2000/svg" viewBox="0 0 792 612"><defs><style>.cls-1{fill:#231f20;}</style></defs><title>seniorExhibitionCircle</title><path class="cls-1" d="M182.18,278.07l.54-4.48,21.21,2.55q11.3,1.35,12.33-7.32t-10.25-10l-21.21-2.55.54-4.48,22.74,2.73a14.53,14.53,0,0,1,9.6,4.76,13.78,13.78,0,0,1-2.31,19.2,14.45,14.45,0,0,1-10.46,2.35Z"/><path class="cls-1" d="M197.68,214.39l5,1.58a13.85,13.85,0,0,0-6.27,8,13.55,13.55,0,0,0,1.08,11,15.14,15.14,0,0,0,19.8,6.32,13.34,13.34,0,0,0,7.19-8.32,14.07,14.07,0,0,0-.65-10.33l5.07,1.61a19.05,19.05,0,0,1-9.63,20.89,17.8,17.8,0,0,1-14.3,1.28A18.21,18.21,0,0,1,193.75,237a18.75,18.75,0,0,1-1.15-14.67A17.09,17.09,0,0,1,197.68,214.39Z"/><path class="cls-1" d="M202.63,200.11l28.83,14,4.81-9.89,3.71,1.81L233.19,220l-32.53-15.85Z"/><path class="cls-1" d="M246.35,180.35,236.84,194l5.06,8.58-2.77,4-21-35.78,40.82,7.45-2.78,4Zm-4.45-.83-15.69-3.12,8.32,13.66Z"/><path class="cls-1" d="M270.8,166.5l-22.93-28,5.8-4.75q6.79-5.56,14.19-5.63t12.86,6.62q5.63,6.88,4.19,14.13t-8.43,13ZM254,138.83l17.7,21.62,1.22-1a28.17,28.17,0,0,0,4.67-4.76,17.17,17.17,0,0,0,2.72-5.2,10.76,10.76,0,0,0,.17-5.78,16.63,16.63,0,0,0-8.36-10.22,10.61,10.61,0,0,0-5.71-.94,17.76,17.76,0,0,0-5.62,1.66,27.51,27.51,0,0,0-5.56,3.62Z"/><path class="cls-1" d="M311.66,139.33l-20.83-17.11-.09,0,7,23.23-4.16,2.1-10.45-37,24,19.81-1.79-31L329,129.68l-4.15,2.11-14.57-19.42-.09,0Z"/><path class="cls-1" d="M352.23,115.08l-16.16,3.86-1.91,9.78-4.72,1.12,8.06-40.71,25.56,32.7L358.35,123Zm-2.78-3.58L339.8,98.75l-2.87,15.73Z"/><path class="cls-1" d="M381.05,84.51l4.51.2-.95,21.34q-.51,11.37,8.22,11.76t9.23-11L403,85.49l4.51.2-1,22.88a14.47,14.47,0,0,1-4,9.93,13.79,13.79,0,0,1-19.33-.86A14.52,14.52,0,0,1,380,107.39Z"/><path class="cls-1" d="M411.78,122.43,421,85.66l19.4,34.23L447,94l4.37,1.11-9.19,36.54-19.4-34.24-6.59,26.16Z"/><path class="cls-1" d="M448.12,132.68l16-32.48,6.72,3.31q7.89,3.87,11,10.57t-.68,14.45q-3.93,8-11.12,9.67t-15.3-2.28Zm18.19-26.78L454,131l1.42.7a28.06,28.06,0,0,0,6.26,2.27,17.14,17.14,0,0,0,5.86.32,10.8,10.8,0,0,0,5.33-2.25,14.64,14.64,0,0,0,4.13-5.3,14.86,14.86,0,0,0,1.69-6.55,10.6,10.6,0,0,0-1.5-5.58,18.09,18.09,0,0,0-3.84-4.43,28,28,0,0,0-5.61-3.55Z"/><path class="cls-1" d="M476.66,147.82l21.21-29.33,15.75,11.39-2.42,3.35-12.1-8.75-5.93,8.21,11.74,8.49-2.42,3.35L490.75,136l-8,11.09,12.1,8.74-2.42,3.35Z"/><path class="cls-1" d="M515.56,159.57l-3,19.22-3.89-3.85,3.22-18.38-1.33-1.32L499.8,166.11l-3.2-3.18,25.49-25.69L526,141.1c1,1,1.75,1.77,2.32,2.4a20.08,20.08,0,0,1,1.86,2.49,11.14,11.14,0,0,1,1.42,3,9.2,9.2,0,0,1-.1,5,10.31,10.31,0,0,1-2.61,4.44,10.21,10.21,0,0,1-6.49,3.13A9.4,9.4,0,0,1,515.56,159.57Zm6.89-16.28-9.23,9.3,1,1a22,22,0,0,0,2.64,2.28,12.15,12.15,0,0,0,2.76,1.48,4.82,4.82,0,0,0,3.07.18,6.75,6.75,0,0,0,3-1.88q4.57-4.6-2.42-11.53Z"/><path class="cls-1" d="M540.65,186.55l8.08,11.86-1.19.81a17.44,17.44,0,0,1-13.08,3.1A16.33,16.33,0,0,1,523.37,195a17.28,17.28,0,0,1-2.65-13.82,18.95,18.95,0,0,1,22-14.86,18,18,0,0,1,12.08,7.83,19,19,0,0,1,3.08,7.8,18.29,18.29,0,0,1-.57,8.33l-4.29-.92a14.43,14.43,0,0,0,.71-6.58,13.39,13.39,0,0,0-2.24-6.15,13.76,13.76,0,0,0-9.32-6,14.27,14.27,0,0,0-11,2.38,14.69,14.69,0,0,0-6.17,9.23,13.08,13.08,0,0,0,1.87,10.72,12.07,12.07,0,0,0,7.18,4.81,10.22,10.22,0,0,0,8.39-1.07l-5.28-7.74Z"/><path class="cls-1" d="M554.05,216.78l-9.77,16.83-2.22-5,9.69-15.94L551,211l-14,6.2L535.16,213l33.1-14.65,2.21,5c.56,1.26,1,2.28,1.29,3.08a20.31,20.31,0,0,1,.82,3,10.5,10.5,0,0,1,.22,3.34,9.16,9.16,0,0,1-1.92,4.66,10.42,10.42,0,0,1-4,3.19,10.18,10.18,0,0,1-7.18.55A9.36,9.36,0,0,1,554.05,216.78Zm12.35-12.66-12,5.31.59,1.32a21.23,21.23,0,0,0,1.63,3.08,12.56,12.56,0,0,0,2,2.39,4.93,4.93,0,0,0,2.8,1.28,6.74,6.74,0,0,0,3.49-.66q5.92-2.62,1.94-11.62Z"/><path class="cls-1" d="M559.22,256.13,555.4,240,545.62,238l-1.11-4.72,40.69,8.13L552.46,267l-1.12-4.72Zm3.59-2.77,12.77-9.63-15.73-2.89Z"/><path class="cls-1" d="M552.47,269.71l36.18-1.14.23,7.49q.29,8.78-4.17,14.68t-13.08,6.17q-8.88.29-13.76-5.28t-5.17-14.58Zm32.19,3.5-27.92.88,0,1.59a28.37,28.37,0,0,0,.93,6.59,17,17,0,0,0,2.47,5.33,10.74,10.74,0,0,0,4.49,3.65,16.58,16.58,0,0,0,13.19-.42,10.4,10.4,0,0,0,4.22-3.95,17.73,17.73,0,0,0,2.11-5.47,27.52,27.52,0,0,0,.51-6.61Z"/><path class="cls-1" d="M565.41,375l-.61-4.15a6.4,6.4,0,0,0,5.37-4.06,6.73,6.73,0,0,0,.26-4.41,4.49,4.49,0,0,0-2.7-3.15q-3-1.25-6.71,2.68l-1.93,2a17.71,17.71,0,0,1-6.4,4.54,9.43,9.43,0,0,1-7.1-.42,10.74,10.74,0,0,1-6.2-6.17,11.48,11.48,0,0,1,.21-8.83,10.7,10.7,0,0,1,5.5-5.83,11.57,11.57,0,0,1,8.13-.63l-.86,4.58a6.32,6.32,0,0,0-5.28,0,6.92,6.92,0,0,0-3.74,3.88,6.2,6.2,0,0,0,.1,5.21,7.14,7.14,0,0,0,3.87,3.65,5.3,5.3,0,0,0,4.47.06,15.47,15.47,0,0,0,4.26-3.2l1.93-1.9a18.66,18.66,0,0,1,5.58-3.95,7.38,7.38,0,0,1,5.9.19,8.27,8.27,0,0,1,5.06,5.52,11.5,11.5,0,0,1-.49,7.9A10,10,0,0,1,565.41,375Z"/><path class="cls-1" d="M533.52,368.42l30.85,18.92-10.16,16.57-3.52-2.15,7.8-12.73-8.63-5.3-7.58,12.36-3.52-2.16,7.58-12.35-11.66-7.15-7.81,12.72L523.35,385Z"/><path class="cls-1" d="M520.71,389.5,549,414.78l-39.33,1.27,19.93,17.83-3,3.36-28.09-25.12,39.33-1.28-20.11-18Z"/><path class="cls-1" d="M514.16,447.41,490.9,419.68l3.46-2.9,23.26,27.73Z"/><path class="cls-1" d="M499.6,453a18.89,18.89,0,0,1-22.91,13.79,18.89,18.89,0,0,1-13.86-22.89,19.36,19.36,0,0,1,23-13.86,18.89,18.89,0,0,1,13.74,23Zm-15-18.67a14.32,14.32,0,0,0-17.44,10.5,14.13,14.13,0,0,0,1.7,11.1,14.44,14.44,0,0,0,8.87,6.77,14.65,14.65,0,0,0,17.72-10.67,14.38,14.38,0,0,0-1.83-11A14.1,14.1,0,0,0,484.63,434.35Z"/><path class="cls-1" d="M446.22,462.47l-16.09-10.93,5.14-1.86,15.22,10.79,1.76-.64-5.19-14.4,4.24-1.53,12.28,34-5.15,1.86c-1.29.47-2.34.82-3.16,1.06a20.13,20.13,0,0,1-3,.62,11,11,0,0,1-3.35,0,9.15,9.15,0,0,1-4.51-2.25,10.37,10.37,0,0,1-2.89-4.27,10.21,10.21,0,0,1-.05-7.2A9.43,9.43,0,0,1,446.22,462.47ZM458,475.68l-4.45-12.33-1.35.49a23.24,23.24,0,0,0-3.19,1.41,12,12,0,0,0-2.52,1.85,4.9,4.9,0,0,0-1.48,2.7,6.78,6.78,0,0,0,.41,3.53q2.19,6.09,11.45,2.76Z"/><path class="cls-1" d="M413,455l3.9,36-19.33,2.1-.45-4.11,14.85-1.6-1.1-10.08-14.41,1.57-.44-4.11,14.41-1.56L409,459.61l-14.85,1.61-.44-4.1Z"/><path class="cls-1" d="M379.3,475.84l9.21,17.66-5.13-.23-6.8-13.51-8.45,12.83-5.13-.23,11.17-16.75L364,456.18l5,.23L377,471.6l9.53-14.42,5,.23Z"/><path class="cls-1" d="M351.75,475.67l-16.81-3.79-3.2,14.24-4.4-1,8-35.31,4.4,1-3.82,16.95,16.81,3.79,3.82-16.95,4.4,1L353,490.9l-4.4-1Z"/><path class="cls-1" d="M312.46,479.52l12.7-33.89,4.22,1.58-12.7,33.89Z"/><path class="cls-1" d="M319.14,443.43l-16.35,32.28-3.94-2a26.08,26.08,0,0,1-4.26-2.64,15,15,0,0,1-3-3.19,7.07,7.07,0,0,1-1.31-4.1,10.49,10.49,0,0,1,1.28-4.92,8.54,8.54,0,0,1,2.77-3.14,6.09,6.09,0,0,1,3.8-1.23l0-.08a8.36,8.36,0,0,1-3.16-5.24,9.5,9.5,0,0,1,.84-6.22c1.53-3,3.77-4.74,6.69-5.14a15.35,15.35,0,0,1,9.11,1.79Zm-18.56,26.65L306,459.37l-1-.52a11.14,11.14,0,0,0-5.7-1.49q-2.37.21-4,3.37c-1.06,2.09-1.18,3.79-.36,5.12a10.83,10.83,0,0,0,4.52,3.66Zm7.05-13.92L313.3,445l-3.09-1.56q-7.62-3.87-10.5,1.83a5.45,5.45,0,0,0-.65,3.14,5,5,0,0,0,1.17,2.72,13.38,13.38,0,0,0,2.21,2.12,18.27,18.27,0,0,0,2.71,1.66Z"/><path class="cls-1" d="M272.84,458.87l19.78-30.31L296.4,431l-19.78,30.31Z"/><path class="cls-1" d="M259.39,443.72l20-25.05,3.53,2.82-20,25.05,6.72,5.36-2.58,3.23-17-13.54,2.57-3.23Z"/><path class="cls-1" d="M241.74,433.21l25.5-25.69,3.2,3.17L245,436.38Z"/><path class="cls-1" d="M235.07,419.57A18.89,18.89,0,0,1,219,398.22a18.88,18.88,0,0,1,21.32-16.17,19.39,19.39,0,0,1,16.19,21.46,18.9,18.9,0,0,1-21.41,16.06Zm17-16.83a14.32,14.32,0,0,0-12.26-16.25A14.09,14.09,0,0,0,229,389.34a14.36,14.36,0,0,0-5.8,9.51,14.64,14.64,0,0,0,12.45,16.52,14.44,14.44,0,0,0,10.75-3A14.13,14.13,0,0,0,252.08,402.74Z"/><path class="cls-1" d="M239,371.08l-34.67,15.36,15-36.37L194.94,360.9l-1.83-4.13,34.46-15.26-15,36.37L237.21,367Z"/></svg>