<svg id="Layer_1" data-name="Layer 1" xmlns="http://www.w3.org/2000/svg" width="652.5" height="504.205" viewBox="0 0 792 612"><defs><style>.cls-1{fill:#231f20;}.cls-2{fill:none;}</style></defs><title>designMediaArts</title><path class="cls-1" d="M104.75,115.78h27.68q16.11,0,24.31,7.83t8.21,22a59.82,59.82,0,0,1-2.79,18.57A41.67,41.67,0,0,1,153.84,179,38,38,0,0,1,140,188.86a49.16,49.16,0,0,1-19.37,3.54H88.54Zm3.64,62.45h13a26.36,26.36,0,0,0,11.43-2.36,24,24,0,0,0,8.37-6.44,28.67,28.67,0,0,0,5.15-9.44,36.42,36.42,0,0,0,1.77-11.48,29,29,0,0,0-.91-7.57,15.39,15.39,0,0,0-2.95-5.85,13.54,13.54,0,0,0-5.21-3.81,19.69,19.69,0,0,0-7.67-1.34H118.7Z"/><path class="cls-1" d="M184.27,168.36a16.68,16.68,0,0,0-.11,1.83v1.39a10.59,10.59,0,0,0,3,7.83q3,3,9.23,3a10.81,10.81,0,0,0,4-.7,11.77,11.77,0,0,0,3.11-1.77,12.86,12.86,0,0,0,2.36-2.47c.68-.93,1.31-1.82,1.88-2.68H223a39.26,39.26,0,0,1-4.29,8.26,24.08,24.08,0,0,1-5.91,6,25.14,25.14,0,0,1-8,3.65,40.81,40.81,0,0,1-10.57,1.23,31.46,31.46,0,0,1-10.14-1.55,20.84,20.84,0,0,1-7.78-4.62,20.59,20.59,0,0,1-5-7.62,28.77,28.77,0,0,1-1.78-10.46,38.83,38.83,0,0,1,2.15-12.83,35.43,35.43,0,0,1,6.06-10.94,29.31,29.31,0,0,1,9.61-7.62,28.1,28.1,0,0,1,12.77-2.84,35.15,35.15,0,0,1,10.57,1.5,21.71,21.71,0,0,1,8.16,4.56,20.77,20.77,0,0,1,5.25,7.62A27.43,27.43,0,0,1,226,159.67a43.63,43.63,0,0,1-.86,8.69Zm27-9.66a24,24,0,0,0-.38-4.24,10.83,10.83,0,0,0-1.44-3.81,7.6,7.6,0,0,0-3.12-2.73,12,12,0,0,0-5.36-1,15.63,15.63,0,0,0-5.69,1,14.34,14.34,0,0,0-4.29,2.58A14.51,14.51,0,0,0,188,154.2a28.77,28.77,0,0,0-2.09,4.5Z"/><path class="cls-1" d="M267.86,153.12a7.67,7.67,0,0,0-2.14-5.52q-2-2-6.44-2a15.87,15.87,0,0,0-6.71,1.23,4.34,4.34,0,0,0-2.63,4.24,3.92,3.92,0,0,0,1.56,3.12,16.4,16.4,0,0,0,5.42,2.46l7.62,2.47a41.11,41.11,0,0,1,5.68,2.31,19.86,19.86,0,0,1,4.67,3.17A13.06,13.06,0,0,1,278,169a14.8,14.8,0,0,1,1.12,6.06,15.85,15.85,0,0,1-2.31,8.75,18.15,18.15,0,0,1-6.06,5.85,27.73,27.73,0,0,1-8.48,3.27,45.11,45.11,0,0,1-9.55,1,40.46,40.46,0,0,1-8.26-.86,24.33,24.33,0,0,1-7.62-2.89,16.67,16.67,0,0,1-5.58-5.37,14.76,14.76,0,0,1-2.15-8.16v-2.25h14.17v1.83a5.72,5.72,0,0,0,1,3.32,7.93,7.93,0,0,0,2.53,2.31,12.76,12.76,0,0,0,3.54,1.39,16.13,16.13,0,0,0,3.92.49,18.19,18.19,0,0,0,3.43-.33,9.61,9.61,0,0,0,3.11-1.12,6.93,6.93,0,0,0,2.25-2,5.37,5.37,0,0,0,.86-3.17c0-1.93-.5-3.29-1.5-4.07a13.48,13.48,0,0,0-4-2l-11.7-3.76a40.16,40.16,0,0,1-5.09-2,13.19,13.19,0,0,1-3.76-2.68,10.52,10.52,0,0,1-2.36-3.92,16.76,16.76,0,0,1-.81-5.53,14.14,14.14,0,0,1,2.31-8.26,18.07,18.07,0,0,1,6-5.42,27.4,27.4,0,0,1,7.94-3,40.06,40.06,0,0,1,8.37-.91,49.21,49.21,0,0,1,8.69.75,20.08,20.08,0,0,1,7.3,2.73,14.67,14.67,0,0,1,5,5.42,17.54,17.54,0,0,1,1.77,8.8Z"/><path class="cls-1" d="M296.3,136.92h15.24l-11.8,55.48H284.5Zm17-8.59H298l2.77-12.55h15.26Z"/><path class="cls-1" d="M365.84,189.5a43.72,43.72,0,0,1-3.75,10.84,22.63,22.63,0,0,1-6.07,7.41,24.68,24.68,0,0,1-8.8,4.29,45.64,45.64,0,0,1-12,1.39,38.12,38.12,0,0,1-8.43-1,24.35,24.35,0,0,1-7.62-3.11,17.72,17.72,0,0,1-5.52-5.58,15.75,15.75,0,0,1-2.15-8.48h15.24a6.62,6.62,0,0,0,.75,3.65,7.16,7.16,0,0,0,2.31,2.46,9.81,9.81,0,0,0,3.27,1.4,16.24,16.24,0,0,0,3.65.43,11.3,11.3,0,0,0,6.06-1.5,13.6,13.6,0,0,0,4.13-4.08,25.56,25.56,0,0,0,2.9-6.12c.79-2.36,1.57-4.9,2.36-7.62l-.21-.21q-5.91,7.83-15.24,7.83a23.61,23.61,0,0,1-8.91-1.61,18.18,18.18,0,0,1-6.71-4.61,21.3,21.3,0,0,1-4.23-7.14,26.8,26.8,0,0,1-1.51-9.28,40.07,40.07,0,0,1,1.88-12.08,35.55,35.55,0,0,1,5.47-10.73,28.58,28.58,0,0,1,8.8-7.72,23.61,23.61,0,0,1,11.86-3,22.12,22.12,0,0,1,10.2,2.25,14.87,14.87,0,0,1,6.76,7.73h.21l1.72-8.48h14.59ZM346.2,146.9a11.45,11.45,0,0,0-6.76,2,17.91,17.91,0,0,0-4.83,5.09,25,25,0,0,0-2.95,6.77,26.42,26.42,0,0,0-1,7,18,18,0,0,0,.59,4.67,11.22,11.22,0,0,0,1.88,3.92,9,9,0,0,0,3.22,2.68,10.15,10.15,0,0,0,4.61,1,12.77,12.77,0,0,0,7.14-2,16.82,16.82,0,0,0,5-5,23.76,23.76,0,0,0,3-6.82,27.72,27.72,0,0,0,1-7.29,13.51,13.51,0,0,0-2.68-8.64C352.68,148,349.92,146.9,346.2,146.9Z"/><path class="cls-1" d="M389.45,136.92H404l-1.71,7.72h.21A23.71,23.71,0,0,1,422,135.42q7.93,0,12.07,3.8t4.13,11.11a14.66,14.66,0,0,1-.21,2.2c-.15.9-.29,1.81-.43,2.74a26.49,26.49,0,0,1-.54,2.63,19.56,19.56,0,0,0-.43,2l-6.87,32.52H414.45l6.77-32.52c.07-.43.17-.94.32-1.55a16.39,16.39,0,0,0,.32-1.88c.07-.65.14-1.27.21-1.88a13.62,13.62,0,0,0,.11-1.45,4.83,4.83,0,0,0-2.31-4.08,8.57,8.57,0,0,0-5-1.61,13.07,13.07,0,0,0-6.06,1.35,15.62,15.62,0,0,0-4.56,3.48,17.45,17.45,0,0,0-3.11,4.94,32.77,32.77,0,0,0-1.83,5.69L393.1,192.4H377.86Z"/><path class="cls-1" d="M284.93,261.4h23.29l5.9,55.49h.21l29.51-55.49h23.51L351.14,338H335.37l13.95-61h-.22l-32.41,61H303.82l-7.41-61h-.21l-11.49,61h-16Z"/><path class="cls-1" d="M382.26,314c-.07.71-.1,1.32-.1,1.82v1.4a10.59,10.59,0,0,0,3,7.83q3,3,9.23,3a11,11,0,0,0,4-.7,12.42,12.42,0,0,0,3.12-1.77,13.16,13.16,0,0,0,2.36-2.47c.68-.93,1.3-1.83,1.87-2.68H421a38.35,38.35,0,0,1-4.29,8.26,24,24,0,0,1-5.9,6,25.18,25.18,0,0,1-8,3.64,40.3,40.3,0,0,1-10.57,1.24A31.18,31.18,0,0,1,382.1,338a20.07,20.07,0,0,1-12.77-12.23,28.78,28.78,0,0,1-1.77-10.46,38.83,38.83,0,0,1,2.15-12.83,35.43,35.43,0,0,1,6.06-10.94,28.85,28.85,0,0,1,9.61-7.62A28.08,28.08,0,0,1,398.15,281a35.2,35.2,0,0,1,10.57,1.5,21.75,21.75,0,0,1,8.15,4.57,20.56,20.56,0,0,1,5.26,7.61A27.71,27.71,0,0,1,424,305.3a44.38,44.38,0,0,1-.86,8.69Zm27.05-9.66a24,24,0,0,0-.38-4.24,10.66,10.66,0,0,0-1.45-3.81,7.6,7.6,0,0,0-3.11-2.74,12.21,12.21,0,0,0-5.37-1,15.58,15.58,0,0,0-5.68,1,14.11,14.11,0,0,0-4.3,2.58,14.8,14.8,0,0,0-3,3.75,28,28,0,0,0-2.1,4.51Z"/><path class="cls-1" d="M467.15,331.16l-.22-.22a15.3,15.3,0,0,1-7,6.55,22.83,22.83,0,0,1-9.61,2q-10.1,0-15.61-5.9t-5.53-16A50,50,0,0,1,431,304.22a36.23,36.23,0,0,1,5.58-11.69,28.9,28.9,0,0,1,9.45-8.32A27.14,27.14,0,0,1,459.42,281a21.9,21.9,0,0,1,4.78.54,18.51,18.51,0,0,1,4.5,1.61,14.2,14.2,0,0,1,3.76,2.79,11.48,11.48,0,0,1,2.52,4h.22l6.11-28.55h15.24L480.35,338h-14.7ZM461,292.53a12.55,12.55,0,0,0-7.46,2.25,18.43,18.43,0,0,0-5.2,5.69,26.79,26.79,0,0,0-3,7.51,33.73,33.73,0,0,0-1,7.72,15.79,15.79,0,0,0,.7,4.73,12.32,12.32,0,0,0,2,4,9.36,9.36,0,0,0,3.38,2.68,11,11,0,0,0,4.73,1,12.06,12.06,0,0,0,7.4-2.31,19.62,19.62,0,0,0,5.21-5.85,28.53,28.53,0,0,0,3.11-7.67,32.24,32.24,0,0,0,1-7.68,13.43,13.43,0,0,0-2.69-8.69C467.51,293.63,464.75,292.53,461,292.53Z"/><path class="cls-1" d="M504.17,282.54h15.24L507.61,338H492.37Zm17-8.58H505.89l2.77-12.56h15.26Z"/><path class="cls-1" d="M527.89,299.39a20.13,20.13,0,0,1,3.16-8.74,19.26,19.26,0,0,1,6-5.64,25.68,25.68,0,0,1,8-3.06,45.35,45.35,0,0,1,9.12-.91,60.28,60.28,0,0,1,7.78.54,26.56,26.56,0,0,1,7.57,2.09,14.46,14.46,0,0,1,5.63,4.46,11.65,11.65,0,0,1,2.09,7.51,34.73,34.73,0,0,1-.32,4.29c-.21,1.65-.5,3.33-.86,5l-4.94,22.32a19.49,19.49,0,0,0-.59,3.71c-.1,1.46-.16,2.73-.16,3.81a10.12,10.12,0,0,0,.54,3.22H555.68v-5.48a18.83,18.83,0,0,1-7.67,5.26,26.28,26.28,0,0,1-9.28,1.72,24.08,24.08,0,0,1-7.89-1.18,16.35,16.35,0,0,1-5.64-3.22,13.4,13.4,0,0,1-3.38-4.67,13.88,13.88,0,0,1-1.12-5.53,16.09,16.09,0,0,1,5.63-12.87q5.64-4.83,15.62-6,5.35-.65,9.33-1a37.43,37.43,0,0,0,6.6-1,8.2,8.2,0,0,0,3.92-2,5.58,5.58,0,0,0,1.29-4,5.66,5.66,0,0,0-1-3.38,6.72,6.72,0,0,0-2.41-2.09,10.16,10.16,0,0,0-3.17-1,20.13,20.13,0,0,0-3.11-.27,13.66,13.66,0,0,0-7.3,2,8.64,8.64,0,0,0-4,6.17Zm32.19,12a15.41,15.41,0,0,1-6.22,2.09c-2.22.26-4.44.45-6.66.6a31.69,31.69,0,0,0-4.18.69,12.12,12.12,0,0,0-3.6,1.45,7.57,7.57,0,0,0-2.52,2.63,8.39,8.39,0,0,0-1,4.24,5.13,5.13,0,0,0,2.52,4.67,10.88,10.88,0,0,0,5.85,1.55,14,14,0,0,0,6-1.12,13.16,13.16,0,0,0,4.08-2.9,13.56,13.56,0,0,0,2.63-4,38.54,38.54,0,0,0,1.61-4.5Z"/><path class="cls-1" d="M506.28,389.22h17.3l12.79,76.62H519.52l-2.47-17.06H488.4l-9.66,17.06H460.93Zm-11.23,47h20.5l-3.76-30.48h-.21Z"/><path class="cls-1" d="M553,410.36h14.49l-2.25,10,.21.21a18.23,18.23,0,0,1,7.78-8.74,22.56,22.56,0,0,1,11.32-3,35.75,35.75,0,0,1,4.73.33L586.16,424l-3.22-.65a18.3,18.3,0,0,0-10.67,1.18,15.3,15.3,0,0,0-5.16,4.08,21,21,0,0,0-3.32,5.85,45.75,45.75,0,0,0-2,6.81l-5.15,24.58H541.41Z"/><path class="cls-1" d="M614.28,410.36h11l-2.37,10.19H612.13l-5.73,27.58c-.14.57-.25,1.09-.32,1.56a7.75,7.75,0,0,0-.11,1,4.39,4.39,0,0,0,.49,2.3,3.43,3.43,0,0,0,1.24,1.24,3.81,3.81,0,0,0,1.68.48c.61,0,1.2,0,1.78,0a46.63,46.63,0,0,0,5.48-.32l-2.58,11.81c-1.57.14-3.15.27-4.74.37s-3.2.16-4.86.16a29.9,29.9,0,0,1-5.35-.48,13,13,0,0,1-4.68-1.77,10.22,10.22,0,0,1-3.33-3.43,10.1,10.1,0,0,1-1.18-5.58,15.84,15.84,0,0,1,.21-2.42c.15-.89.32-1.84.54-2.84l6.22-29.73h-10l2.36-10.19H599l3.43-16.85h15.24Z"/><path class="cls-1" d="M661.93,426.56a7.76,7.76,0,0,0-2.15-5.53q-2-2-6.44-2a15.9,15.9,0,0,0-6.71,1.23,4.34,4.34,0,0,0-2.63,4.24,3.89,3.89,0,0,0,1.56,3.11A16.27,16.27,0,0,0,651,430.1l7.62,2.47a39.35,39.35,0,0,1,5.69,2.31A20.29,20.29,0,0,1,669,438a13.06,13.06,0,0,1,3.12,4.35,14.8,14.8,0,0,1,1.12,6.06,15.93,15.93,0,0,1-2.3,8.75,18.18,18.18,0,0,1-6.07,5.85,27.77,27.77,0,0,1-8.47,3.27,45.2,45.2,0,0,1-9.56,1,41.17,41.17,0,0,1-8.26-.86,24.11,24.11,0,0,1-7.62-2.9,16.54,16.54,0,0,1-5.58-5.36,14.76,14.76,0,0,1-2.14-8.16v-2.25h14.16v1.82a5.66,5.66,0,0,0,1,3.33,7.79,7.79,0,0,0,2.52,2.31,12.88,12.88,0,0,0,3.54,1.39,16.13,16.13,0,0,0,3.92.49,18.11,18.11,0,0,0,3.43-.33,9.85,9.85,0,0,0,3.11-1.12,7.07,7.07,0,0,0,2.26-2,5.44,5.44,0,0,0,.86-3.17c0-1.93-.51-3.29-1.51-4.08a13.73,13.73,0,0,0-4-2l-11.7-3.76a40.16,40.16,0,0,1-5.09-2,13.19,13.19,0,0,1-3.76-2.68,10.6,10.6,0,0,1-2.36-3.92,16.77,16.77,0,0,1-.8-5.53,14.13,14.13,0,0,1,2.3-8.26,18.17,18.17,0,0,1,6-5.42,27.12,27.12,0,0,1,7.94-3,40.08,40.08,0,0,1,8.37-.92,49.12,49.12,0,0,1,8.69.76,20.08,20.08,0,0,1,7.3,2.73,14.58,14.58,0,0,1,5,5.42,17.54,17.54,0,0,1,1.77,8.8Z"/><polygon class="cls-1" points="113.58 475.55 101.84 490.21 101.84 244.33 92.64 244.33 92.64 492.08 79.05 478.26 72.5 484.71 97.59 510.23 120.76 481.29 113.58 475.55"/><polygon class="cls-1" points="240.43 475.55 228.69 490.21 228.69 244.33 219.49 244.33 219.49 492.08 205.91 478.26 199.35 484.71 224.44 510.23 247.61 481.29 240.43 475.55"/><rect class="cls-2" x="70.39" y="85.05" width="731.37" height="425.18"/><polygon class="cls-1" points="662.42 127.63 637.32 102.1 614.15 131.04 621.34 136.79 633.07 122.13 633.07 368.01 642.27 368.01 642.27 120.26 655.86 134.07 662.42 127.63"/><polygon class="cls-1" points="355.73 472.09 343.99 486.75 343.99 368.01 334.8 368.01 334.8 488.62 321.21 474.8 314.65 481.25 339.75 506.77 362.92 477.83 355.73 472.09"/><rect class="cls-2" x="70.39" y="85.05" width="731.37" height="425.18"/><polygon class="cls-1" points="547.73 127.88 522.63 102.35 499.47 131.29 506.65 137.04 518.39 122.38 518.39 241.12 527.59 241.12 527.59 120.51 541.17 134.32 547.73 127.88"/></svg>