<?xml version="1.0" encoding="utf-8"?>
<!-- Generator: Adobe Illustrator 23.0.3, SVG Export Plug-In . SVG Version: 6.00 Build 0)  -->
<svg version="1.1" id="Layer_1" xmlns="http://www.w3.org/2000/svg" xmlns:xlink="http://www.w3.org/1999/xlink"
	 width="455.9" height="308.2" style="enable-background:new 0 0 455.9 308.2;" xml:space="preserve">
<style type="text/css">
	.st0{fill:#231F20;}
</style>
<title>designMediaArts</title>
<g>
	<path class="st0" d="M24.4,10.3h20.8c8.1,0,14.2,2,18.4,5.9s6.2,9.5,6.2,16.6c0.1,4.8-0.7,9.5-2.1,14c-1.3,4.2-3.5,7.9-6.3,11.2
		c-2.9,3.2-6.4,5.8-10.4,7.5c-4.6,1.9-9.6,2.8-14.7,2.6H12.2L24.4,10.3z M27.1,57.5h9.8c2.9,0.1,5.9-0.5,8.6-1.8
		c2.4-1.1,4.6-2.8,6.3-4.8c1.7-2.1,3-4.5,3.9-7.1c0.9-2.8,1.4-5.7,1.4-8.7c0-2-0.2-3.9-0.7-5.7c-0.5-1.6-1.2-3.1-2.2-4.5
		c-1.1-1.3-2.4-2.3-3.9-2.9c-1.8-0.8-3.8-1.1-5.8-1h-9.6L27.1,57.5z"/>
	<path class="st0" d="M84.4,50c-0.1,0.5-0.1,0.9-0.1,1.4v1.1c-0.1,2.2,0.8,4.3,2.3,5.9c1.5,1.5,3.9,2.3,6.9,2.3c1.1,0,2-0.2,3-0.5
		c0.8-0.3,1.7-0.8,2.3-1.4c0.7-0.5,1.3-1.1,1.8-1.9c0.5-0.7,1-1.4,1.4-2h11.6c-0.8,2.2-1.9,4.3-3.2,6.3c-1.2,1.7-2.7,3.3-4.5,4.5
		c-1.8,1.3-3.9,2.2-6,2.7c-2.6,0.7-5.3,1-8,0.9c-2.6,0-5.2-0.4-7.6-1.2c-2.2-0.8-4.2-1.9-5.9-3.5c-1.7-1.6-2.9-3.5-3.8-5.7
		c-0.9-2.5-1.4-5.2-1.4-7.9c0-3.3,0.5-6.6,1.6-9.7c1.1-3,2.6-5.8,4.6-8.2c2-2.4,4.5-4.4,7.2-5.7c3-1.4,6.3-2.2,9.7-2.1
		c2.7,0,5.4,0.4,8,1.1c2.3,0.7,4.4,1.9,6.2,3.5c1.7,1.6,3.1,3.5,3.9,5.7c1,2.6,1.5,5.2,1.4,7.9c0,2.2-0.2,4.4-0.7,6.6L84.4,50
		L84.4,50z M104.8,42.7c0-1.1-0.1-2.1-0.3-3.2c-0.2-1-0.5-2-1.1-2.9c-0.6-0.9-1.4-1.6-2.3-2c-1.3-0.5-2.6-0.8-4.1-0.8
		c-1.4,0-2.9,0.2-4.3,0.8c-1.2,0.5-2.3,1.1-3.2,2c-0.9,0.8-1.7,1.7-2.3,2.8c-0.6,1.1-1.1,2.2-1.6,3.4L104.8,42.7L104.8,42.7z"/>
	<path class="st0" d="M147.6,38.5c0.1-1.6-0.5-3-1.6-4.2c-1-1-2.6-1.5-4.8-1.5c-1.7-0.1-3.5,0.2-5.1,0.9c-1.3,0.5-2,1.8-2,3.2
		c0,0.9,0.5,1.8,1.2,2.3c1.2,0.8,2.6,1.5,4.1,1.9l5.7,1.9c1.4,0.5,2.9,1.1,4.3,1.7c1.3,0.6,2.5,1.4,3.5,2.4c1,0.9,1.8,2,2.3,3.3
		c0.6,1.4,0.9,3,0.8,4.6c0.1,2.3-0.5,4.6-1.7,6.6c-1.1,1.8-2.7,3.3-4.6,4.5c-2,1.1-4.2,2-6.4,2.5c-2.3,0.5-4.8,0.8-7.2,0.8
		c-2.1,0-4.2-0.2-6.3-0.7c-2-0.4-4-1.1-5.7-2.2c-1.7-1-3.2-2.4-4.2-4.1c-1.1-1.9-1.7-4-1.6-6.2v-1.7h10.7V56c0,0.9,0.2,1.7,0.8,2.5
		c0.5,0.7,1.1,1.3,1.9,1.7c0.8,0.5,1.7,0.8,2.6,1.1c1,0.2,2,0.4,2.9,0.4c0.9,0,1.7-0.1,2.6-0.2c0.8-0.2,1.6-0.5,2.3-0.8
		c0.7-0.4,1.3-0.9,1.7-1.5c0.5-0.7,0.7-1.5,0.7-2.4c0-1.4-0.4-2.5-1.1-3.1c-0.9-0.7-2-1.2-3-1.5l-8.8-2.9c-1.3-0.5-2.6-0.9-3.9-1.5
		c-1.1-0.5-2-1.2-2.9-2c-0.8-0.8-1.4-1.9-1.8-2.9c-0.5-1.4-0.7-2.8-0.6-4.2c-0.1-2.2,0.5-4.4,1.7-6.3c1.2-1.7,2.7-3.1,4.5-4.1
		c1.9-1.1,3.9-1.8,6-2.3c2.1-0.5,4.2-0.7,6.3-0.7c2.2,0,4.4,0.2,6.6,0.6c2,0.3,3.9,1.1,5.5,2c1.6,1.1,2.9,2.4,3.8,4.1
		c1,2,1.5,4.4,1.4,6.6L147.6,38.5z"/>
	<path class="st0" d="M169,26.3h11.5l-8.9,41.8h-11.5L169,26.3z M181.9,19.8h-11.6l2.1-9.5H184L181.9,19.8z"/>
	<path class="st0" d="M221.6,66c-0.6,2.9-1.5,5.6-2.9,8.2c-1.1,2.2-2.6,4.1-4.6,5.6s-4.2,2.6-6.6,3.2c-2.9,0.8-6,1.1-9.1,1.1
		c-2.1,0-4.3-0.3-6.3-0.8c-2-0.5-4-1.2-5.7-2.3c-1.7-1.1-3.1-2.5-4.2-4.2c-1.1-2-1.7-4.2-1.6-6.4H192c-0.1,1,0.2,1.9,0.6,2.7
		c0.5,0.8,1.1,1.4,1.7,1.9c0.8,0.5,1.6,0.8,2.5,1.1c0.9,0.2,1.8,0.3,2.8,0.3c1.6,0.1,3.2-0.3,4.6-1.1c1.3-0.8,2.3-1.8,3.1-3.1
		c0.9-1.4,1.7-3,2.2-4.6c0.6-1.8,1.2-3.7,1.8-5.7l-0.2-0.2c-2.9,3.9-6.8,5.9-11.5,5.9c-2.3,0-4.6-0.4-6.7-1.2c-2-0.8-3.7-2-5.1-3.5
		c-1.4-1.6-2.5-3.4-3.2-5.4c-0.8-2.3-1.2-4.6-1.1-7c0-3.1,0.5-6.2,1.4-9.1c0.9-2.9,2.3-5.7,4.2-8.1c1.8-2.4,4.1-4.4,6.6-5.8
		c2.7-1.5,5.8-2.3,9-2.3c2.6-0.1,5.3,0.5,7.7,1.7c2.3,1.3,4.2,3.3,5.1,5.8h0.2l1.3-6.4h11L221.6,66z M206.7,33.8
		c-1.8-0.1-3.6,0.5-5.1,1.5c-1.4,1.1-2.7,2.3-3.6,3.9c-1,1.6-1.7,3.3-2.3,5.1c-0.5,1.7-0.8,3.5-0.8,5.3c0,1.2,0.2,2.3,0.5,3.5
		c0.3,1.1,0.8,2,1.4,2.9c0.6,0.8,1.5,1.6,2.4,2c1.1,0.5,2.3,0.8,3.5,0.8c1.9,0.1,3.8-0.5,5.4-1.5c1.5-1,2.8-2.3,3.8-3.8
		c1.1-1.6,1.8-3.3,2.3-5.1c0.5-1.8,0.8-3.6,0.8-5.5c0.1-2.3-0.6-4.7-2-6.5C211.6,34.7,209.5,33.8,206.7,33.8z"/>
	<path class="st0" d="M239.4,26.3h11l-1.3,5.8h0.2c3.5-4.5,9-7.2,14.7-6.9c4,0,7,1,9.1,2.9s3.1,4.7,3.1,8.4c0,0.5-0.1,1.1-0.2,1.7
		c-0.2,0.7-0.2,1.4-0.3,2s-0.2,1.4-0.4,2c-0.2,0.5-0.2,1-0.3,1.5l-5.2,24.5h-11.6l5.1-24.5c0.1-0.3,0.2-0.7,0.2-1.2
		c0.1-0.5,0.2-0.9,0.2-1.4c0.1-0.5,0.1-1,0.2-1.4c0.1-0.4,0.1-0.8,0.1-1.1c0-1.3-0.7-2.4-1.7-3.1c-1.1-0.8-2.4-1.2-3.8-1.2
		c-1.6,0-3.2,0.3-4.6,1.1c-1.3,0.7-2.5,1.5-3.5,2.6c-1,1.1-1.8,2.3-2.3,3.7c-0.6,1.4-1.1,2.8-1.4,4.3l-4.7,22.3h-11.5L239.4,26.3z"
		/>
	<path class="st0" d="M160.4,120.2H178l4.5,41.9h0.2l22.3-41.9h17.8l-12.2,57.8h-11.9l10.6-46.1H209l-24.5,46.1h-9.7l-5.6-46.1H169
		l-8.7,46.1h-12.1L160.4,120.2z"/>
	<path class="st0" d="M234,160c-0.1,0.5-0.1,1-0.1,1.4v1.1c-0.1,2.2,0.8,4.3,2.3,5.9c1.5,1.5,3.9,2.3,6.9,2.3c1.1,0,2-0.2,3-0.5
		c0.8-0.3,1.7-0.8,2.3-1.4c0.7-0.5,1.3-1.1,1.8-1.9c0.5-0.7,1-1.4,1.4-2h11.6c-0.8,2.2-1.9,4.3-3.2,6.3c-1.2,1.7-2.7,3.3-4.5,4.5
		c-1.8,1.3-3.9,2.2-6,2.7c-2.6,0.7-5.3,1-8,0.9c-2.6,0-5.2-0.4-7.6-1.2c-4.5-1.4-8-4.8-9.7-9.2c-0.9-2.5-1.4-5.2-1.4-7.9
		c0-3.3,0.5-6.6,1.6-9.7c1.1-3,2.6-5.8,4.6-8.2c2-2.4,4.5-4.4,7.2-5.7c3-1.5,6.3-2.3,9.7-2.2c2.7,0,5.4,0.4,8,1.1
		c2.3,0.7,4.4,1.9,6.1,3.5s3.1,3.5,4,5.7c1,2.6,1.4,5.3,1.4,8c0,2.2-0.2,4.4-0.7,6.6L234,160z M254.4,152.7c0-1.1-0.1-2.1-0.3-3.2
		c-0.2-1.1-0.5-2-1.1-2.9s-1.4-1.6-2.3-2c-1.3-0.5-2.6-0.8-4.1-0.8c-1.4,0-2.9,0.2-4.3,0.8c-1.2,0.5-2.3,1.1-3.2,2
		c-0.9,0.8-1.7,1.7-2.3,2.9c-0.6,1.1-1.1,2.2-1.6,3.4L254.4,152.7z"/>
	<path class="st0" d="M298.1,172.9l-0.2-0.2c-1.2,2.2-3,3.9-5.3,4.9c-2.3,1.1-4.8,1.5-7.2,1.5c-5.1,0-9-1.5-11.8-4.5
		c-2.8-2.9-4.2-7-4.2-12.1c0-3.4,0.5-6.8,1.4-10.1c0.8-3.2,2.3-6.2,4.2-8.8c1.9-2.6,4.3-4.8,7.2-6.3c3.1-1.7,6.6-2.5,10.1-2.4
		c1.2,0,2.4,0.2,3.6,0.4c1.2,0.2,2.3,0.7,3.4,1.2c1.1,0.5,2,1.3,2.9,2.1c0.8,0.8,1.5,1.9,1.9,3h0.2l4.6-21.5h11.5L308,178.1h-11.1
		L298.1,172.9z M293.4,143.8c-2-0.1-4,0.5-5.7,1.7c-1.6,1.1-2.9,2.6-3.9,4.3c-1.1,1.7-1.8,3.7-2.3,5.7c-0.5,1.9-0.8,3.9-0.8,5.8
		c0,1.2,0.2,2.4,0.5,3.5c0.3,1.1,0.8,2.1,1.5,3c0.7,0.8,1.6,1.6,2.6,2c1.1,0.5,2.3,0.8,3.5,0.8c2,0.1,4-0.5,5.6-1.7
		c1.6-1.2,2.9-2.7,3.9-4.5c1.1-1.8,1.9-3.8,2.3-5.8c0.5-1.9,0.8-3.9,0.8-5.8c0.1-2.3-0.6-4.7-2-6.6
		C298.3,144.6,296.3,143.8,293.4,143.8z"/>
	<path class="st0" d="M326,136.2h11.5l-8.9,41.9h-11.5L326,136.2z M338.9,129.7h-11.6l2.1-9.5H341L338.9,129.7z"/>
	<path class="st0" d="M343.9,148.9c0.3-2.3,1.1-4.6,2.4-6.6c1.2-1.7,2.7-3.2,4.5-4.2c1.9-1.1,3.9-1.9,6-2.3c2.3-0.5,4.6-0.7,6.9-0.7
		c2,0,3.9,0.2,5.9,0.4c2,0.2,3.9,0.8,5.7,1.6c1.7,0.8,3.2,1.9,4.2,3.4c1.1,1.7,1.7,3.6,1.6,5.7c0,1.1-0.1,2.2-0.2,3.2
		c-0.2,1.2-0.4,2.5-0.7,3.8l-3.7,16.8c-0.2,0.9-0.4,1.9-0.5,2.8c-0.1,1.1-0.2,2-0.2,2.9c0,0.8,0.2,1.7,0.4,2.4h-11.5v-4.2
		c-1.6,1.8-3.5,3.2-5.8,4c-2.3,0.8-4.6,1.3-7,1.3c-2,0-4-0.3-6-0.9c-1.6-0.5-3-1.4-4.2-2.4c-1.1-1-2-2.2-2.6-3.5
		c-0.5-1.3-0.8-2.7-0.8-4.2c-0.2-3.7,1.4-7.3,4.2-9.7c2.9-2.4,6.8-3.9,11.8-4.5c2.7-0.3,5.1-0.6,7-0.8c1.7-0.1,3.3-0.4,5-0.8
		c1.1-0.2,2.1-0.8,2.9-1.5c0.7-0.8,1.1-1.9,1-3c0-0.9-0.2-1.8-0.8-2.6c-0.5-0.7-1.1-1.2-1.8-1.6c-0.8-0.4-1.6-0.6-2.4-0.8
		c-0.8-0.2-1.6-0.2-2.3-0.2c-2,0-3.9,0.5-5.5,1.5c-1.7,1.1-2.8,2.7-3,4.7L343.9,148.9z M368.2,158c-1.4,0.8-3,1.4-4.7,1.6
		c-1.7,0.2-3.3,0.4-5.1,0.5c-1.1,0.1-2.1,0.3-3.2,0.5c-1,0.2-1.9,0.6-2.7,1.1c-0.8,0.5-1.4,1.2-1.9,2c-0.5,1-0.8,2.1-0.8,3.2
		c-0.1,1.4,0.7,2.8,1.9,3.5c1.4,0.8,2.9,1.2,4.4,1.1c1.6,0.1,3.1-0.2,4.5-0.8c1.1-0.5,2.2-1.3,3.1-2.2c0.8-0.9,1.5-1.9,2-3
		c0.5-1.1,0.9-2.3,1.2-3.4L368.2,158z"/>
	<path class="st0" d="M327.6,216.8h13.1l9.7,57.8h-12.7l-1.9-12.9h-21.7l-7.3,12.9h-13.4L327.6,216.8z M319.2,252.3h15.5l-2.9-23
		h-0.2L319.2,252.3z"/>
	<path class="st0" d="M362.9,232.8h11l-1.7,7.6l0.2,0.2c1.2-2.8,3.2-5.1,5.9-6.6c2.6-1.5,5.5-2.3,8.5-2.3c1.2,0,2.4,0.1,3.5,0.2
		l-2.3,11.2l-2.4-0.5c-2.7-0.5-5.5-0.2-8.1,0.9c-1.5,0.8-2.9,1.8-3.9,3.1c-1.1,1.4-1.9,2.8-2.5,4.5s-1.1,3.4-1.5,5.1l-3.9,18.6
		h-11.5L362.9,232.8z"/>
	<path class="st0" d="M409.2,232.8h8.3l-1.8,7.7h-8.2l-4.3,20.8c-0.1,0.5-0.2,0.8-0.2,1.2c-0.1,0.2-0.1,0.5-0.1,0.8
		c0,0.6,0.1,1.2,0.4,1.7c0.2,0.4,0.5,0.7,0.9,0.9s0.8,0.4,1.3,0.4c0.5,0,0.9,0,1.4,0c1.4,0,2.8-0.1,4.2-0.2l-2,8.9
		c-1.2,0.1-2.4,0.2-3.5,0.3c-1.1,0.1-2.4,0.2-3.7,0.2c-1.4,0-2.7-0.2-4-0.4c-1.3-0.2-2.4-0.7-3.5-1.4c-1.1-0.7-1.9-1.5-2.5-2.6
		c-0.7-1.3-1-2.7-0.9-4.2c0-0.6,0.1-1.2,0.2-1.8c0.2-0.7,0.2-1.4,0.4-2.1l4.7-22.4h-7.6l1.8-7.7h7.4l2.6-12.8h11.5L409.2,232.8z"/>
	<path class="st0" d="M445.1,245c0-1.6-0.5-3-1.7-4.2c-1-1-2.6-1.5-4.8-1.5c-1.7-0.1-3.5,0.2-5.1,0.9c-1.3,0.5-2,1.8-2,3.2
		c0,0.9,0.5,1.8,1.2,2.3c1.2,0.9,2.6,1.5,4.1,1.9l5.7,1.9c1.5,0.5,2.9,1.1,4.3,1.7c1.3,0.6,2.5,1.4,3.5,2.3c1,0.9,1.8,2,2.3,3.3
		c0.6,1.4,0.9,3,0.8,4.6c0.1,2.3-0.5,4.6-1.7,6.6c-1.1,1.8-2.7,3.3-4.6,4.5c-2,1.1-4.2,2-6.4,2.5c-2.3,0.5-4.8,0.8-7.2,0.8
		c-2.1,0-4.2-0.2-6.3-0.7c-2-0.4-4-1.1-5.7-2.2c-1.7-1-3.2-2.4-4.2-4.1c-1.1-1.9-1.7-4-1.6-6.2v-1.7h10.8v1.4c0,0.9,0.2,1.8,0.8,2.5
		c0.5,0.7,1.1,1.3,1.9,1.7c0.8,0.5,1.7,0.8,2.6,1.1c1,0.2,2,0.4,2.9,0.4c0.9,0,1.7-0.1,2.6-0.2c0.8-0.2,1.6-0.5,2.3-0.8
		c0.7-0.4,1.3-0.9,1.7-1.5c0.5-0.7,0.7-1.5,0.7-2.4c0-1.4-0.4-2.5-1.1-3.1c-0.9-0.7-2-1.2-3-1.5l-8.8-2.9c-1.3-0.5-2.6-0.9-3.9-1.5
		c-1.1-0.5-2-1.2-2.9-2c-0.8-0.8-1.4-1.9-1.8-2.9c-0.5-1.4-0.6-2.8-0.6-4.2c-0.1-2.2,0.5-4.4,1.7-6.3c1.2-1.7,2.7-3.1,4.5-4.1
		c1.9-1.1,3.9-1.8,6-2.3c2-0.5,4.2-0.7,6.3-0.7c2.2,0,4.4,0.2,6.6,0.6c2,0.3,3.9,1.1,5.5,2c1.6,1,2.9,2.4,3.8,4.1
		c1,2,1.5,4.4,1.4,6.6L445.1,245z"/>
	<polygon class="st0" points="31,282 22.1,293.1 22.1,107.4 15.2,107.4 15.2,294.5 5,284 0,288.9 19,308.2 36.5,286.3 	"/>
	<polygon class="st0" points="126.8,282 118,293.1 118,107.4 111,107.4 111,294.5 100.7,284 95.8,288.9 114.8,308.2 132.2,286.3 	
		"/>
	<polygon class="st0" points="445.5,19.3 426.5,0 409.1,21.8 414.5,26.1 423.4,15.1 423.4,200.8 430.3,200.8 430.3,13.7 440.6,24.1 
			"/>
	<polygon class="st0" points="213.9,279.4 205,290.5 205,200.8 198.1,200.8 198.1,291.9 187.8,281.4 182.9,286.3 201.9,305.6 
		219.3,283.7 	"/>
	<polygon class="st0" points="358.9,19.4 339.9,0.2 322.5,22 327.9,26.4 336.7,15.3 336.7,105 343.7,105 343.7,13.9 354,24.3 	"/>
</g>
</svg>
