<svg id="Layer_1" data-name="Layer 1" xmlns="http://www.w3.org/2000/svg" viewBox="0 0 700 700"><title>hand</title><path d="M238.53,99.65h150c10.38,0,18.82,8.88,18.82,19.81v43.21c0,10.93-8.44,19.81-18.82,19.81h-150c-10.38,0-18.83-8.88-18.83-19.81V119.46C219.7,108.53,228.15,99.65,238.53,99.65Zm150,70.38c3.51,0,6.37-3.3,6.37-7.36V119.46c0-4.06-2.86-7.36-6.37-7.36h-150c-3.51,0-6.37,3.3-6.37,7.36v43.21c0,4.06,2.86,7.36,6.37,7.36Z"/><path d="M221.51,384.41c8.23,7.14,18.13,6.64,20.68,6.38a22.94,22.94,0,0,0,17.28-7.93v7.23a29.47,29.47,0,0,0,6.29,18.57,26,26,0,0,0,20.87,9.73c9.05,0,16.57-3.77,21.68-10.75,1.39,11.48,5.46,20.07,12.13,25.64a24.66,24.66,0,0,0,13.84,5.79,22.2,22.2,0,0,0,17.11-4.19q.63-.48,1.23-1v62.6a46.15,46.15,0,0,0,3.93,19.24c5.75,12.61,15.6,18.45,27.75,16.42a34.43,34.43,0,0,0,21.39-12.28,38,38,0,0,0,8.16-24V342.92a27.18,27.18,0,0,1,.3-4.39c.18.12.38.26.59.42a21.32,21.32,0,0,1,6.26,7.7L432.65,370c8.43,16.84,19.59,21.53,27.47,22.5a21.07,21.07,0,0,0,16.43-5.13A21.91,21.91,0,0,0,484,371.06c.08-11.51-4.91-23.29-5.12-23.78l-.09-.19-67.9-145.5a23.44,23.44,0,0,0-21.17-13.48H245.23a32.94,32.94,0,0,0-21,7.23c-8.2,6.49-13.09,17-13.09,28.18v133.2C211.17,369.14,214.65,378.46,221.51,384.41Zm30.63-20a13.29,13.29,0,1,1-26.57,0v-3.59a13.29,13.29,0,1,1,26.57,0Zm51.19,20.94c-.07.1-.19,5.22-.19,5.22A15.14,15.14,0,0,1,288,405.72h-.61a15.08,15.08,0,0,1-4.58-.71,12.71,12.71,0,0,1-7-4.49,13.91,13.91,0,0,1-1.63-2.58,15,15,0,0,1-1.92-7.36V360.53a15.14,15.14,0,0,1,15.14-15.14H288a15.14,15.14,0,0,1,15.14,15.14v.3a20.7,20.7,0,0,1,.19,2.75Zm52.23,23.95a17.24,17.24,0,1,1-34.47,0V362.63a17.24,17.24,0,1,1,34.47,0ZM224.09,223.52c0-7.24,3.07-14,8.2-18.05A20.33,20.33,0,0,1,245.23,201H389.72a10.48,10.48,0,0,1,9.46,6L467,352.44c.39.94,4.11,10.18,4.05,18.53a9,9,0,0,1-3.05,6.65,8,8,0,0,1-6.32,2c-6.9-.85-12.78-6.05-17.48-15.46l-11.66-23.31a33.77,33.77,0,0,0-10.17-12.35c-6.64-4.87-11.5-4.14-14.4-2.66-7.07,3.58-7.07,13.73-7.07,17.06V502.26a17.65,17.65,0,0,1-35.3,0v-97l-.07-.19a6.57,6.57,0,0,0-.24-1.73V361.56a28.51,28.51,0,0,0-54-12.71c-4.54-9.34-13.25-15.67-23.24-15.67-11.75,0-21.73,8.77-25.23,20.89-3.33-11-13-18.93-24.32-18.93a24.28,24.28,0,0,0-14.41,4.77Z"/><path d="M338.69,377.35a16.72,16.72,0,0,1-16.52-16.88V344h6.46v16.52a10.06,10.06,0,1,0,20.11,0V344h6.47v16.52A16.72,16.72,0,0,1,338.69,377.35Z"/><path d="M287.7,376.63a14.38,14.38,0,0,1-14.37-14.36v-19h6.46v19a7.91,7.91,0,0,0,15.81,0v-19h6.46v19A14.37,14.37,0,0,1,287.7,376.63Z"/><path d="M239,368c-7.23,0-13.11-5.56-13.11-12.41V343.5h6.46v12.1c0,3.28,3,5.95,6.65,5.95s6.64-2.67,6.64-5.95V343.5h6.46v12.1C252.14,362.45,246.26,368,239,368Z"/><path d="M434,491a9,9,0,0,1-6.36-15.36l31.5-31.5a9,9,0,0,1,12.72,12.72l-31.5,31.5A9,9,0,0,1,434,491Z"/><path d="M334,491a9,9,0,0,1-6.36-2.64l-30.5-30.5a9,9,0,0,1,12.72-12.72l30.5,30.5A9,9,0,0,1,334,491Z"/><path d="M484,572H277V532.74a35.73,35.73,0,0,1,35.7-35.7H355.5V510H312.74A22.81,22.81,0,0,0,290,532.74V559H471v-26.3A22.81,22.81,0,0,0,448.26,510H408V497h40.26a35.73,35.73,0,0,1,35.7,35.7Z"/><path d="M283.5,554.88h-90a6.47,6.47,0,0,1,0-12.93h90a6.47,6.47,0,0,1,0,12.93Z"/><path d="M554.5,554.88h-77a6.47,6.47,0,0,1,0-12.93h77a6.47,6.47,0,0,1,0,12.93Z"/></svg>