<?xml version="1.0" encoding="utf-8"?>
<!-- Generator: Adobe Illustrator 23.0.3, SVG Export Plug-In . SVG Version: 6.00 Build 0)  -->
<svg version="1.1" id="Layer_1" xmlns="http://www.w3.org/2000/svg" xmlns:xlink="http://www.w3.org/1999/xlink"
	 width="226.4"  height="286.4" style="enable-background:new 0 0 226.4 286.4;" xml:space="preserve">
<title>hand</title>
<g>
	<path d="M204.2,15.6v25.5c0,6.4-5,11.7-11.1,11.7h-88.5c-6.1,0-11.1-5.2-11.1-11.7V15.6c0-6.4,5-11.7,11.1-11.7h88.5
		C199.2,3.9,204.2,9.2,204.2,15.6z M193.1,45.4c2.1,0,3.8-1.9,3.8-4.4V15.6c0-2.4-1.7-4.4-3.8-4.4h-88.5c-2.1,0-3.8,1.9-3.8,4.4
		v25.5c0,2.4,1.7,4.4,3.8,4.4H193.1z"/>
	<path d="M209.3,155.5V76.9c0-6.6-2.9-12.8-7.7-16.6c-3.5-2.8-7.9-4.3-12.4-4.2h-85.3c-5.4,0-10.2,3.1-12.5,8l-40,85.8l-0.1,0.1
		c-0.1,0.3-3.1,7.3-3,14c0.1,3.7,1.7,7.2,4.4,9.6c2.7,2.3,6.1,3.4,9.7,3c4.7-0.6,11.3-3.4,16.2-13.3l6.8-13.7
		c0.9-1.8,2.1-3.4,3.7-4.5c0.1-0.1,0.2-0.2,0.4-0.2c0.1,0.9,0.2,1.7,0.2,2.6v90.1c-0.1,5.1,1.7,10.1,4.8,14.2
		c3.2,3.9,7.7,6.5,12.6,7.3c7.2,1.2,13-2.2,16.4-9.7c1.5-3.5,2.4-7.4,2.3-11.3V201c0.2,0.2,0.5,0.4,0.7,0.6
		c2.9,2.2,6.5,3.1,10.1,2.5c3-0.3,5.8-1.5,8.1-3.4c3.9-3.2,6.3-8.3,7.1-15.1c3,4.1,7.5,6.4,12.8,6.4c4.8,0.1,9.3-2,12.3-5.7
		c2.5-3.1,3.8-7,3.7-11V171c2.6,2.9,6.3,4.7,10.2,4.7c1.5,0.1,7.4,0.4,12.2-3.8C207.1,168.3,209.2,162.8,209.3,155.5z M185,157.9
		c0-0.1,0-0.3,0-0.4c0.1-4.3,3.7-7.7,8-7.6c4.3,0.1,7.7,3.7,7.6,8v2.1c0,0.1,0,0.3,0,0.4c-0.1,4.3-3.7,7.7-8,7.6
		c-4.3-0.1-7.7-3.7-7.6-8V157.9z M154.9,159.5c0-0.6,0.1-1.1,0.1-1.7v-0.2l0,0c0-4.9,4-8.9,8.9-8.9h0.4l0,0c4.9,0,8.9,4,8.9,8.9
		v17.7c0,1.5-0.4,3.1-1.1,4.4c-0.2,0.5-0.6,1.1-0.9,1.5c-1.1,1.3-2.5,2.2-4.1,2.7c-0.9,0.3-1.8,0.4-2.7,0.4h-0.4l0,0
		c-4.9,0-8.9-4-8.9-8.9c0,0-0.1-3-0.1-3.1V159.5z M124,158.9c0-0.1,0-0.3,0-0.5c0.2-5.6,4.8-10.1,10.4-9.9c5.6,0.2,10,4.8,9.9,10.4
		v27.6c0,0.1,0,0.3,0,0.5c-0.2,5.6-4.8,10.1-10.4,9.9c-5.6-0.2-10-4.8-9.9-10.4V158.9z M201.6,145.5c-2.5-1.8-5.4-2.8-8.5-2.8
		c-6.7,0-12.4,4.7-14.3,11.1c-2.1-7.1-7.9-12.3-14.9-12.3c-5.9,0-11,3.8-13.7,9.3c-2.8-5.7-8.6-9.3-15-9.3
		c-9.3-0.1-16.9,7.5-16.9,16.7v24.6c-0.1,0.3-0.1,0.6-0.1,1l-0.1,0.1v57.2c0,5.7-4.7,10.4-10.4,10.4c-5.8,0-10.4-4.7-10.4-10.4v-94
		c0-2,0-8-4.2-10.1c-1.7-0.8-4.6-1.3-8.5,1.6c-2.6,1.9-4.6,4.4-6,7.3l-6.9,13.7c-2.8,5.6-6.3,8.6-10.3,9.1c-1.4,0.2-2.7-0.3-3.7-1.2
		c-1.1-0.9-1.8-2.4-1.8-3.9c-0.1-4.9,2.1-10.4,2.4-10.9l40-85.7c1.1-2.2,3.2-3.5,5.6-3.5h85.2c2.8,0,5.4,0.9,7.6,2.7
		c3,2.4,4.8,6.4,4.8,10.7L201.6,145.5z"/>
	<path d="M124.2,157.8V148h3.8v9.7c0,0.1,0,0.2,0,0.4c0.1,3.2,2.8,5.8,6.1,5.7c3.2-0.1,5.8-2.8,5.7-6.1V148h3.8v9.7
		c0.1,5.4-4.3,9.9-9.7,10C128.6,167.6,124.2,163.2,124.2,157.8z"/>
	<path d="M155.6,158.8v-11.2h3.8v11.2c0.1,2.4,2.1,4.4,4.5,4.5c2.6,0.1,4.7-1.9,4.8-4.5v-11.2h3.8v11.2c0,4.7-3.8,8.5-8.5,8.5
		S155.6,163.4,155.6,158.8z"/>
	<path d="M185.1,154.9v-7.1h3.8v7.1c0,1.9,1.8,3.5,3.9,3.5s3.9-1.6,3.9-3.5v-7.1h3.8v7.1c0,4-3.5,7.3-7.7,7.3
		C188.5,162.2,185,158.9,185.1,154.9z"/>
	<path d="M74.1,233.1l-18.6-18.6c-1.9-2.1-1.9-5.2,0-7.3c2-2.1,5.4-2.2,7.5-0.2l18.6,18.6c1,1,1.5,2.4,1.5,3.8
		c0,2.9-2.4,5.3-5.3,5.3C76.4,234.7,75,234.1,74.1,233.1z"/>
	<path d="M133.1,233.2c-2.1-2.1-2.1-5.4,0-7.5l18-18c2.1-1.9,5.2-1.9,7.3,0c2.1,2,2.2,5.4,0.2,7.5l-18,18c-1,0.9-2.4,1.5-3.8,1.5
		C135.4,234.7,134,234.1,133.1,233.2z"/>
	<path d="M48.3,259.3c0-11.6,9.4-21.1,21.1-21.1h23.8v7.7H69.4c-7.4,0-13.3,6-13.4,13.4v15.5h106.7v-15.5c0-7.4-6-13.4-13.4-13.4
		h-25.2v-7.7h25.2c11.6,0,21.1,9.4,21.1,21.1v23.2H48.3V259.3z"/>
	<path d="M162.9,268.7c-0.1-2.1,1.5-3.9,3.7-4h53.1c2,0.1,3.6,1.7,3.7,3.7c0.1,2.1-1.5,3.9-3.7,4h-53.1
		C164.6,272.3,163,270.7,162.9,268.7z"/>
	<path d="M3.1,268.7c-0.1-2.1,1.5-3.9,3.7-4h45.4c2,0.1,3.6,1.7,3.7,3.7c0.1,2.1-1.5,3.9-3.7,4H6.8C4.7,272.3,3.2,270.7,3.1,268.7z"
		/>
</g>
</svg>
