<svg id="Layer_1" data-name="Layer 1" xmlns="http://www.w3.org/2000/svg" width="792" height="612"><defs><style>.cls-1{fill:#fff;stroke:#231f20;stroke-miterlimit:21.99;stroke-width:4.25px;}</style></defs><title>space</title><path class="cls-1" d="M42.66,217.78a23.77,23.77,0,0,0-7.22,17.39v27.6q0,13.16,12.76,16l64.21,14.6a4.46,4.46,0,0,1,3.83,4.79v4.14a9.15,9.15,0,0,1-2.83,6.78A9.59,9.59,0,0,1,97,302.25v-5.74H35.44v20a24.65,24.65,0,0,0,24.65,24.65h93a24.72,24.72,0,0,0,24.64-24.65v-27.6q0-13.08-12.68-15.95l-64.21-14.52A4.52,4.52,0,0,1,97,253.68v-4.23a9.61,9.61,0,0,1,19.22,0v5.74h61.5v-20a24.79,24.79,0,0,0-24.64-24.65h-93A23.67,23.67,0,0,0,42.66,217.78Z"/><path class="cls-1" d="M264.33,242.71a9.19,9.19,0,0,1,2.83,6.74v3.11a9.15,9.15,0,0,1-2.83,6.78,9.27,9.27,0,0,1-6.74,2.79H248V239.88h9.57A9.19,9.19,0,0,1,264.33,242.71Zm-77.81-32.19V341.18H248V291.41H304.1a24.72,24.72,0,0,0,24.65-24.65V235.17a24.79,24.79,0,0,0-24.65-24.65Z"/><path class="cls-1" d="M372.94,297.15l9.25-27.84,10.13,27.84Zm-52.33,44h37.65l4.87-14.68h39.72l5.35,14.68h61.5L422.55,210.52H367.83Z"/><path class="cls-1" d="M485.69,217.78a23.81,23.81,0,0,0-7.22,17.39v81.36a24.65,24.65,0,0,0,24.65,24.65h93a24.72,24.72,0,0,0,24.65-24.65v-20H559.2v5.74a9.58,9.58,0,1,1-19.15,0v-52.8a9.58,9.58,0,0,1,19.15,0v5.74h61.58v-20a24.79,24.79,0,0,0-24.65-24.65h-93A23.67,23.67,0,0,0,485.69,217.78Z"/><polygon class="cls-1" points="629.55 210.52 629.55 341.18 755.75 341.18 755.75 311.83 691.13 311.83 691.13 287.18 755.75 287.18 755.75 257.82 691.13 257.82 691.13 239.88 755.75 239.88 755.75 210.52 629.55 210.52"/></svg>